<svg xmlns="http://www.w3.org/2000/svg" viewBox="0 0 64 64" role="img" aria-label="Notre-Dame">
  <title>Notre-Dame</title>
  <polygon points="32,2 58,17 58,47 32,62 6,47 6,17" fill="#1D1A14" stroke="#C8A24A" stroke-width="2" stroke-linejoin="round"/>
  <polygon points="32,5.5 55,18.75 55,45.25 32,58.5 9,45.25 9,18.75" fill="none" stroke="#3A3325" stroke-width="1"/>
  <circle cx="32" cy="32" r="22.7" fill="none" stroke="#B3A685" stroke-width="1" stroke-dasharray="1 3" opacity=".5"/>
  <path d="M20 46 L20 26 L32 18 L44 26 L44 46 Z" fill="#B3A685" stroke="#12100D" stroke-width="1.2" stroke-linejoin="round"/>
  <circle cx="32" cy="30" r="4.6" fill="#7FA3A8" stroke="#12100D" stroke-width="1"/>
  <circle cx="32" cy="30" r="1.6" fill="#E0B45C"/>
  <path d="M26 46 L26 38 L30 38 L30 46 M34 38 L38 38 L38 46" fill="#12100D"/>
  <path d="M32 18 L32 12 M30 14 L34 14" stroke="#C8A24A" stroke-width="1.6" stroke-linecap="round"/>
</svg>
